<?xml version="1.0" encoding="utf-8"?>
<!-- Generator: Adobe Illustrator 22.0.0, SVG Export Plug-In . SVG Version: 6.00 Build 0)  -->
<svg version="1.1" id="Layer_1" xmlns="http://www.w3.org/2000/svg" xmlns:xlink="http://www.w3.org/1999/xlink" x="0px" y="0px"
	 viewBox="0 0 178.3 55.2" style="enable-background:new 0 0 178.3 55.2;" xml:space="preserve">
<style type="text/css">
	.st0{fill:#FFFFFF;}
</style>
<g>
	<polygon class="st0" points="38.5,16.4 38.5,26.8 45,16.4 50.6,16.5 43.3,27 51.3,39.2 45.3,39.2 38.5,27.3 38.4,39.1 33.1,39.1 
		33.3,16.5 	"/>
	<path class="st0" d="M55.2,23.1c1.6-0.7,3.1-1,4.6-1c2.8,0,4.7,1.1,5.4,2.9c0.2,0.7,0.3,1.2,0.3,3l-0.1,5.6c0,0.1,0,0.2,0,0.3
		c0,1.8,0.3,2.5,1.6,3.4L64.7,40c-1-0.4-1.9-1.2-2.4-2c-0.3,0.3-0.7,0.7-1,0.9c-0.8,0.6-2,0.9-3.4,0.9c-3.7,0-5.7-1.9-5.7-5.3
		c0-3.9,2.7-5.7,8.1-5.7c0.3,0,0.6,0,1,0v-0.7c0-1.9-0.3-2.5-1.9-2.5c-1.4,0-3,0.7-4.9,1.9l-1.8-3.1C53.4,23.9,54.1,23.6,55.2,23.1
		 M60.9,31.9c-3,0-4.1,0.5-4.1,2.5c0,1.3,0.8,2.2,1.9,2.2c0.8,0,1.6-0.4,2.3-1.1l0.1-3.6C61.1,31.9,60.9,31.9,60.9,31.9z"/>
	<path class="st0" d="M74.4,19.4v13.1c0,2.9,0,3.3,0.3,3.7c0.2,0.3,0.5,0.5,0.9,0.5c0.2,0,0.3,0,0.5-0.1l0.7,2.6
		c-0.8,0.3-1.7,0.4-2.6,0.4c-1.9,0-3.4-0.9-3.9-2.3c-0.3-0.9-0.4-1.4-0.4-3.8V21c0-2.2-0.1-3.5-0.2-5l4.5-1
		C74.3,16,74.4,17.1,74.4,19.4"/>
	<path class="st0" d="M85,18c0,1.5-1.2,2.7-2.7,2.7s-2.7-1.2-2.7-2.7s1.3-2.7,2.8-2.7C83.8,15.2,85,16.5,85,18 M84.4,22.2l-0.1,17.1
		h-4.4L80,22.8L84.4,22.2z"/>
	<path class="st0" d="M93.2,15c0.2,1.2,0.3,3.2,0.2,5.4l-0.1,18.9h-4.4L89,20.5c0-1.5,0-2.6-0.3-4.3L93.2,15z M103.1,22.6l-5.4,7
		l6.5,9.8H99l-5.6-9.5l4.3-7.2L103.1,22.6z"/>
	<path class="st0" d="M117.8,24.9c1.3,1.6,1.9,3.4,1.9,6.1c0,2.9-0.7,4.8-2.1,6.5c-1.3,1.4-3,2.3-5.5,2.3c-4.5,0-7.5-3.4-7.5-8.7
		s3-8.8,7.6-8.7C114.5,22.4,116.3,23.2,117.8,24.9 M109.9,27.3c-0.3,0.9-0.5,2.1-0.5,3.7c0,1.9,0.2,3.4,0.5,4.2
		c0.4,0.9,1.4,1.4,2.2,1.4c1.9,0,2.7-1.7,2.7-5.6c0-2.3-0.3-3.7-0.9-4.5c-0.4-0.6-1.1-0.9-1.9-0.9C111.1,25.6,110.2,26.2,109.9,27.3
		"/>
	<path class="st0" d="M125.4,22c0.4,0.7,0.6,1.4,0.7,2.4c0.6-0.8,1.7-1.8,2.5-2.1c0.4-0.2,0.9-0.3,1.4-0.3c0.7,0,1,0.1,1.6,0.4
		l-1.2,3.9c-0.4-0.2-0.8-0.3-1.3-0.3c-1,0-1.9,0.5-2.7,1.4v11.8H122V28c0-2.3-0.2-4-0.6-4.9L125.4,22z"/>
	<path class="st0" d="M138.9,17.9c0,1.5-1.2,2.7-2.7,2.7s-2.7-1.2-2.7-2.7s1.3-2.7,2.8-2.7C137.7,15.2,138.9,16.4,138.9,17.9
		 M138.3,22.1l-0.1,17.1h-4.4l0.1-16.4L138.3,22.1z"/>
</g>
</svg>
