<?xml version="1.0" encoding="UTF-8" standalone="no"?><!DOCTYPE svg PUBLIC "-//W3C//DTD SVG 1.1//EN" "http://www.w3.org/Graphics/SVG/1.1/DTD/svg11.dtd"><svg width="100%" height="100%" viewBox="0 0 2097 507" version="1.1" xmlns="http://www.w3.org/2000/svg" xmlns:xlink="http://www.w3.org/1999/xlink" xml:space="preserve" xmlns:serif="http://www.serif.com/" style="fill-rule:evenodd;clip-rule:evenodd;stroke-linejoin:round;stroke-miterlimit:1.41421;"><path id="Master" d="M369.291,456.488c3.794,5.698 8.795,10.525 14.635,14.116c-38.132,22.98 -82.795,36.203 -130.522,36.203c-139.858,0 -253.404,-113.546 -253.404,-253.403c0,-139.858 113.546,-253.404 253.404,-253.404c139.857,0 253.403,113.546 253.403,253.404c0,59.62 -20.635,114.46 -55.146,157.76c-2.816,-6.293 -6.97,-11.858 -12.1,-16.332c29.901,-39.282 47.66,-88.298 47.66,-141.428c0,-129.048 -104.77,-233.818 -233.817,-233.818c-129.048,0 -233.818,104.77 -233.818,233.818c0,129.047 104.77,233.817 233.818,233.817c42.154,0 81.719,-11.18 115.887,-30.733Zm600.096,-92.3c3.49,-12.426 14.911,-21.547 28.446,-21.547c16.305,0 29.543,13.238 29.543,29.543c0,16.305 -13.238,29.543 -29.543,29.543c-12.389,0 -23.007,-7.642 -27.393,-18.466l-93.554,0l-66.697,60.266c-0.395,0.304 -0.768,0.641 -1.186,0.913c-0.508,0.332 -1.049,0.608 -1.611,0.829c-0.673,0.282 -1.379,0.486 -2.105,0.601c-0.492,0.078 -0.994,0.078 -1.491,0.118l-363.28,0c-4.086,11.42 -15.008,19.601 -27.826,19.601c-16.305,0 -29.543,-13.238 -29.543,-29.543c0,-16.306 13.238,-29.543 29.543,-29.543c13.12,0 24.253,8.57 28.103,20.412l359.332,0l48.313,-43.654l-283.921,0c-4.199,11.204 -15.012,19.187 -27.674,19.187c-16.305,0 -29.543,-13.238 -29.543,-29.543c0,-16.305 13.238,-29.543 29.543,-29.543c13.272,0 24.511,8.77 28.234,20.826l404.31,0Zm-558.001,-208.375c17.57,28.365 27.716,61.802 27.716,97.591c0,102.489 -83.209,185.698 -185.698,185.698c-102.49,0 -185.699,-83.209 -185.699,-185.698c0,-102.49 83.209,-185.699 185.699,-185.699c20.661,0 40.539,3.382 59.11,9.622c-19.589,11.798 -32.703,33.273 -32.703,57.787c0,37.204 30.205,67.409 67.409,67.409c29.984,0 55.422,-19.619 64.166,-46.71Zm933.309,197.828c0.623,0.964 1.105,2.013 1.446,3.147c0.34,1.134 0.51,2.438 0.51,3.912c0,2.325 -0.425,4.424 -1.276,6.295c-0.85,1.871 -2.055,3.473 -3.615,4.806c-1.559,1.332 -3.416,2.353 -5.571,3.062c-2.155,0.709 -4.508,1.063 -7.06,1.063c-2.325,0 -4.423,-0.255 -6.295,-0.765c-0.793,0.453 -1.573,1.148 -2.339,2.083c-0.765,0.936 -1.148,1.943 -1.148,3.02c0,1.021 0.369,1.914 1.106,2.679c0.737,0.766 2.381,1.177 4.933,1.234l11.313,0.17c5.047,0.113 8.705,1.191 10.973,3.232c2.268,2.042 3.402,4.849 3.402,8.421c0,2.325 -0.595,4.409 -1.786,6.252c-1.191,1.843 -2.835,3.431 -4.934,4.763c-2.098,1.333 -4.579,2.353 -7.442,3.062c-2.864,0.709 -5.969,1.064 -9.314,1.064c-5.841,0 -10.292,-0.908 -13.354,-2.722c-3.063,-1.815 -4.594,-4.679 -4.594,-8.591c0,-2.325 0.624,-4.409 1.872,-6.252c1.247,-1.843 2.863,-3.303 4.848,-4.381c-1.134,-0.737 -2.084,-1.658 -2.849,-2.764c-0.766,-1.106 -1.149,-2.481 -1.149,-4.126c0,-2.098 0.468,-3.912 1.404,-5.443c0.935,-1.531 2.197,-2.892 3.785,-4.083c-1.871,-1.304 -3.374,-2.991 -4.508,-5.061c-1.134,-2.07 -1.701,-4.409 -1.701,-7.018c0,-2.154 0.396,-4.167 1.19,-6.039c0.794,-1.871 1.943,-3.501 3.445,-4.891c1.503,-1.389 3.36,-2.481 5.572,-3.274c2.211,-0.794 4.735,-1.191 7.57,-1.191c2.552,0 4.862,0.368 6.932,1.106c2.07,0.737 3.842,1.672 5.316,2.806c1.135,-0.907 2.666,-1.658 4.594,-2.254c1.928,-0.595 4.054,-0.893 6.379,-0.893c0.227,1.078 0.34,2.269 0.34,3.573c0,0.624 -0.028,1.276 -0.085,1.956c-0.057,0.681 -0.142,1.361 -0.255,2.042l-7.655,0Zm141.368,-7.316c0.567,-0.113 1.148,-0.198 1.744,-0.255c0.595,-0.056 1.205,-0.085 1.828,-0.085c0.567,0 1.163,0.029 1.787,0.085c0.623,0.057 1.219,0.142 1.786,0.255c0.057,0.114 0.127,0.468 0.213,1.064c0.085,0.595 0.17,1.233 0.255,1.914c0.085,0.68 0.17,1.332 0.255,1.956c0.085,0.624 0.127,1.021 0.127,1.191c0.568,-0.908 1.248,-1.787 2.042,-2.637c0.794,-0.851 1.744,-1.616 2.849,-2.297c1.106,-0.68 2.354,-1.219 3.743,-1.616c1.389,-0.397 2.935,-0.595 4.636,-0.595c2.551,0 4.919,0.425 7.102,1.276c2.183,0.85 4.055,2.169 5.614,3.955c1.559,1.786 2.779,4.054 3.658,6.805c0.879,2.75 1.318,5.996 1.318,9.739c0,7.485 -2.027,13.34 -6.082,17.565c-4.054,4.224 -9.796,6.337 -17.224,6.337c-1.248,0 -2.524,-0.086 -3.828,-0.256c-1.304,-0.17 -2.438,-0.397 -3.402,-0.68l0,19.989c-0.681,0.113 -1.404,0.198 -2.169,0.255c-0.766,0.057 -1.46,0.085 -2.084,0.085c-0.624,0 -1.319,-0.028 -2.084,-0.085c-0.766,-0.057 -1.46,-0.142 -2.084,-0.255l0,-63.71Zm-160.847,44.742c-2.552,-0.057 -4.465,0.623 -5.741,2.041c-1.276,1.418 -1.914,3.119 -1.914,5.104c0,1.247 0.255,2.268 0.765,3.062c0.511,0.794 1.234,1.431 2.169,1.914c0.936,0.482 2.042,0.822 3.318,1.02c1.276,0.199 2.679,0.298 4.21,0.298c4.537,0 8.081,-0.751 10.632,-2.254c2.552,-1.503 3.828,-3.388 3.828,-5.657c0,-1.701 -0.539,-3.005 -1.616,-3.912c-1.077,-0.908 -3.062,-1.39 -5.954,-1.446l-9.697,-0.17Zm697.91,-0.085c-3.402,0 -6.379,-0.582 -8.931,-1.744c-2.552,-1.163 -4.678,-2.765 -6.379,-4.806c-1.702,-2.041 -2.963,-4.451 -3.786,-7.23c-0.822,-2.779 -1.233,-5.784 -1.233,-9.016c0,-3.233 0.411,-6.238 1.233,-9.017c0.823,-2.778 2.084,-5.188 3.786,-7.23c1.701,-2.041 3.827,-3.657 6.379,-4.848c2.552,-1.191 5.529,-1.786 8.931,-1.786c3.403,0 6.38,0.595 8.931,1.786c2.552,1.191 4.679,2.807 6.38,4.848c1.701,2.042 2.963,4.452 3.785,7.23c0.822,2.779 1.233,5.784 1.233,9.017c0,3.232 -0.411,6.237 -1.233,9.016c-0.822,2.779 -2.084,5.189 -3.785,7.23c-1.701,2.041 -3.828,3.643 -6.38,4.806c-2.551,1.162 -5.528,1.744 -8.931,1.744Zm-882.233,-20.755c0.113,4.763 1.347,8.251 3.7,10.462c2.353,2.212 5.827,3.318 10.42,3.318c4.026,0 7.854,-0.709 11.483,-2.127c0.453,0.851 0.822,1.886 1.106,3.105c0.283,1.219 0.453,2.424 0.51,3.615c-1.871,0.794 -3.927,1.389 -6.167,1.786c-2.24,0.397 -4.721,0.596 -7.442,0.596c-3.97,0 -7.372,-0.553 -10.208,-1.659c-2.835,-1.106 -5.174,-2.665 -7.017,-4.678c-1.843,-2.013 -3.19,-4.395 -4.04,-7.145c-0.851,-2.751 -1.276,-5.77 -1.276,-9.059c0,-3.232 0.411,-6.252 1.233,-9.059c0.822,-2.807 2.084,-5.245 3.785,-7.315c1.702,-2.07 3.842,-3.714 6.422,-4.933c2.58,-1.22 5.628,-1.829 9.144,-1.829c3.006,0 5.642,0.51 7.911,1.531c2.268,1.021 4.168,2.424 5.699,4.21c1.531,1.787 2.693,3.913 3.487,6.38c0.794,2.466 1.191,5.146 1.191,8.038c0,0.794 -0.028,1.63 -0.085,2.509c-0.057,0.879 -0.114,1.63 -0.17,2.254l-29.686,0Zm761.364,-42.615c0.624,-0.113 1.333,-0.198 2.127,-0.255c0.794,-0.056 1.474,-0.085 2.041,-0.085c0.624,0 1.318,0.029 2.084,0.085c0.766,0.057 1.46,0.142 2.084,0.255l0,61.158c-2.155,0.624 -4.565,1.148 -7.23,1.574c-2.665,0.425 -5.642,0.638 -8.931,0.638c-3.062,0 -5.969,-0.383 -8.719,-1.149c-2.75,-0.765 -5.146,-2.027 -7.187,-3.785c-2.042,-1.758 -3.658,-4.026 -4.849,-6.805c-1.191,-2.778 -1.786,-6.209 -1.786,-10.292c0,-3.516 0.525,-6.719 1.574,-9.611c1.049,-2.892 2.537,-5.373 4.465,-7.443c1.928,-2.07 4.239,-3.672 6.933,-4.806c2.693,-1.134 5.684,-1.701 8.973,-1.701c1.475,0 2.963,0.113 4.466,0.34c1.503,0.227 2.821,0.51 3.955,0.851l0,-18.969Zm45.167,42.615c0.113,4.763 1.346,8.251 3.7,10.462c2.353,2.212 5.826,3.318 10.419,3.318c4.026,0 7.854,-0.709 11.483,-2.127c0.454,0.851 0.823,1.886 1.106,3.105c0.284,1.219 0.454,2.424 0.51,3.615c-1.871,0.794 -3.926,1.389 -6.166,1.786c-2.24,0.397 -4.721,0.596 -7.443,0.596c-3.969,0 -7.372,-0.553 -10.207,-1.659c-2.835,-1.106 -5.175,-2.665 -7.017,-4.678c-1.843,-2.013 -3.19,-4.395 -4.041,-7.145c-0.85,-2.751 -1.276,-5.77 -1.276,-9.059c0,-3.232 0.411,-6.252 1.234,-9.059c0.822,-2.807 2.084,-5.245 3.785,-7.315c1.701,-2.07 3.842,-3.714 6.422,-4.933c2.58,-1.22 5.628,-1.829 9.144,-1.829c3.005,0 5.642,0.51 7.91,1.531c2.268,1.021 4.168,2.424 5.699,4.21c1.531,1.787 2.694,3.913 3.488,6.38c0.793,2.466 1.19,5.146 1.19,8.038c0,0.794 -0.028,1.63 -0.085,2.509c-0.056,0.879 -0.113,1.63 -0.17,2.254l-29.685,0Zm-257.304,12.164c0.453,0.793 0.85,1.786 1.191,2.977c0.34,1.19 0.538,2.41 0.595,3.657c-3.346,1.304 -7.173,1.957 -11.483,1.957c-7.258,0 -12.731,-2.056 -16.416,-6.167c-3.686,-4.111 -5.529,-9.654 -5.529,-16.629c0,-3.233 0.453,-6.238 1.361,-9.017c0.907,-2.778 2.254,-5.188 4.04,-7.23c1.786,-2.041 4.012,-3.657 6.677,-4.848c2.665,-1.191 5.756,-1.786 9.272,-1.786c2.381,0 4.479,0.142 6.294,0.425c1.815,0.284 3.544,0.737 5.189,1.361c0,0.964 -0.128,2.084 -0.383,3.36c-0.255,1.276 -0.61,2.396 -1.063,3.36c-2.779,-0.964 -5.955,-1.446 -9.527,-1.446c-4.366,0 -7.627,1.446 -9.782,4.338c-2.155,2.892 -3.232,6.719 -3.232,11.483c0,5.443 1.219,9.427 3.657,11.95c2.439,2.524 5.784,3.786 10.037,3.786c1.702,0 3.275,-0.114 4.721,-0.341c1.446,-0.226 2.906,-0.623 4.381,-1.19Zm-241.908,-21.18c0,-3.346 -0.851,-5.671 -2.552,-6.975c-1.701,-1.304 -4.168,-1.956 -7.4,-1.956c-1.985,0 -3.842,0.156 -5.572,0.467c-1.729,0.312 -3.416,0.723 -5.061,1.234c-1.077,-1.871 -1.616,-4.111 -1.616,-6.72c1.928,-0.624 4.055,-1.106 6.38,-1.446c2.325,-0.34 4.564,-0.51 6.719,-0.51c5.671,0 9.981,1.29 12.929,3.87c2.949,2.58 4.423,6.705 4.423,12.376l0,27.304c-1.984,0.454 -4.394,0.922 -7.23,1.404c-2.835,0.482 -5.727,0.723 -8.676,0.723c-2.778,0 -5.288,-0.256 -7.527,-0.766c-2.24,-0.51 -4.14,-1.333 -5.699,-2.467c-1.56,-1.134 -2.765,-2.58 -3.615,-4.338c-0.851,-1.758 -1.276,-3.884 -1.276,-6.379c0,-2.439 0.496,-4.579 1.488,-6.422c0.993,-1.843 2.339,-3.374 4.041,-4.593c1.701,-1.22 3.657,-2.127 5.869,-2.722c2.211,-0.596 4.536,-0.893 6.974,-0.893c1.815,0 3.304,0.042 4.466,0.127c1.163,0.085 2.141,0.185 2.935,0.298l0,-1.616Zm-249.394,-33.599c0.624,-0.113 1.319,-0.198 2.084,-0.255c0.766,-0.056 1.46,-0.085 2.084,-0.085c0.624,0 1.333,0.029 2.127,0.085c0.794,0.057 1.502,0.142 2.126,0.255l0,23.987c1.021,-1.701 2.609,-3.175 4.763,-4.423c2.155,-1.247 4.764,-1.871 7.826,-1.871c2.608,0 5.018,0.425 7.23,1.276c2.211,0.85 4.111,2.169 5.699,3.955c1.588,1.786 2.821,4.054 3.7,6.805c0.879,2.75 1.318,5.996 1.318,9.739c0,7.485 -2.112,13.34 -6.337,17.565c-4.224,4.224 -10.306,6.337 -18.245,6.337c-2.495,0 -5.061,-0.241 -7.698,-0.723c-2.636,-0.482 -4.862,-1.035 -6.677,-1.659l0,-60.988Zm636.498,25.348l-5.529,0c-0.114,-0.454 -0.199,-0.978 -0.255,-1.573c-0.057,-0.596 -0.085,-1.177 -0.085,-1.744c0,-0.567 0.028,-1.149 0.085,-1.744c0.056,-0.595 0.141,-1.12 0.255,-1.574l13.779,0l0,43.636c-0.623,0.113 -1.318,0.198 -2.084,0.255c-0.765,0.057 -1.46,0.085 -2.084,0.085c-0.567,0 -1.233,-0.028 -1.998,-0.085c-0.766,-0.057 -1.461,-0.142 -2.084,-0.255l0,-37.001Zm-99.775,-24.157c0.681,-0.113 1.347,-0.198 1.999,-0.255c0.652,-0.057 1.347,-0.085 2.084,-0.085c0.624,0 1.29,0.028 1.999,0.085c0.709,0.057 1.432,0.142 2.169,0.255l-20.754,61.158c-0.681,0.113 -1.361,0.198 -2.042,0.255c-0.68,0.057 -1.389,0.085 -2.126,0.085c-0.624,0 -1.276,-0.028 -1.957,-0.085c-0.68,-0.057 -1.361,-0.142 -2.041,-0.255l20.669,-61.158Zm-452.599,0c0.68,-0.113 1.347,-0.198 1.999,-0.255c0.652,-0.057 1.346,-0.085 2.084,-0.085c0.623,0 1.29,0.028 1.998,0.085c0.709,0.057 1.432,0.142 2.17,0.255l-20.755,61.158c-0.68,0.113 -1.361,0.198 -2.041,0.255c-0.681,0.057 -1.39,0.085 -2.127,0.085c-0.624,0 -1.276,-0.028 -1.956,-0.085c-0.681,-0.057 -1.361,-0.142 -2.042,-0.255l20.67,-61.158Zm482.285,17.522c0.794,-0.113 1.616,-0.198 2.467,-0.255c0.85,-0.056 1.616,-0.085 2.296,-0.085c0.737,0 1.545,0.029 2.424,0.085c0.879,0.057 1.631,0.142 2.254,0.255l11.909,35.98l11.993,-35.98c0.624,-0.113 1.333,-0.198 2.127,-0.255c0.793,-0.056 1.559,-0.085 2.296,-0.085c0.624,0 1.333,0.029 2.127,0.085c0.794,0.057 1.587,0.142 2.381,0.255l-17.012,43.636c-0.737,0.113 -1.474,0.198 -2.211,0.255c-0.737,0.057 -1.418,0.085 -2.041,0.085c-0.624,0 -1.291,-0.028 -1.999,-0.085c-0.709,-0.057 -1.404,-0.142 -2.084,-0.255l-16.927,-43.636Zm-211.967,-18.713c0.623,-0.113 1.318,-0.198 2.084,-0.255c0.765,-0.056 1.46,-0.085 2.084,-0.085c0.623,0 1.332,0.029 2.126,0.085c0.794,0.057 1.503,0.142 2.126,0.255l0,25.348c0.511,-0.794 1.149,-1.644 1.914,-2.552c0.766,-0.907 1.701,-1.743 2.807,-2.509c1.106,-0.765 2.382,-1.389 3.828,-1.871c1.446,-0.482 3.048,-0.723 4.806,-0.723c4.99,0 8.69,1.432 11.1,4.295c2.41,2.864 3.615,7.103 3.615,12.717l0,27.644c-0.624,0.113 -1.318,0.198 -2.084,0.255c-0.765,0.057 -1.46,0.085 -2.084,0.085c-0.624,0 -1.318,-0.028 -2.084,-0.085c-0.765,-0.057 -1.46,-0.142 -2.084,-0.255l0,-25.348c0,-4.026 -0.666,-6.989 -1.999,-8.888c-1.332,-1.9 -3.36,-2.85 -6.081,-2.85c-1.531,0 -3.006,0.269 -4.423,0.808c-1.418,0.539 -2.666,1.389 -3.743,2.552c-1.078,1.162 -1.928,2.679 -2.552,4.551c-0.624,1.871 -0.936,4.139 -0.936,6.804l0,22.371c-0.623,0.113 -1.332,0.198 -2.126,0.255c-0.794,0.057 -1.503,0.085 -2.126,0.085c-0.568,0 -1.248,-0.028 -2.042,-0.085c-0.794,-0.057 -1.503,-0.142 -2.126,-0.255l0,-62.349Zm-505.166,18.713c0.793,-0.113 1.587,-0.198 2.381,-0.255c0.794,-0.056 1.503,-0.085 2.127,-0.085c0.794,0 1.602,0.029 2.424,0.085c0.822,0.057 1.545,0.142 2.169,0.255l8.506,35.64l9.611,-35.64c0.624,-0.113 1.305,-0.198 2.042,-0.255c0.737,-0.056 1.503,-0.085 2.296,-0.085c0.908,0.057 1.687,0.099 2.34,0.128c0.652,0.028 1.29,0.099 1.913,0.212l9.527,35.045l8.506,-35.045c0.624,-0.113 1.248,-0.198 1.871,-0.255c0.624,-0.056 1.305,-0.085 2.042,-0.085c0.623,0 1.318,0.029 2.084,0.085c0.765,0.057 1.545,0.142 2.339,0.255l-13.014,43.636c-0.737,0.113 -1.489,0.198 -2.254,0.255c-0.766,0.057 -1.461,0.085 -2.084,0.085c-0.624,0 -1.305,-0.028 -2.042,-0.085c-0.737,-0.057 -1.474,-0.142 -2.211,-0.255l-9.357,-33.003l-9.782,33.003c-0.793,0.113 -1.573,0.198 -2.339,0.255c-0.765,0.057 -1.46,0.085 -2.084,0.085c-0.623,0 -1.318,-0.028 -2.084,-0.085c-0.765,-0.057 -1.46,-0.142 -2.084,-0.255l-12.843,-43.636Zm573.978,6.635l-5.528,0c-0.114,-0.454 -0.199,-0.978 -0.256,-1.573c-0.056,-0.596 -0.085,-1.177 -0.085,-1.744c0,-0.567 0.029,-1.149 0.085,-1.744c0.057,-0.595 0.142,-1.12 0.256,-1.574l13.779,0l0,43.636c-0.624,0.113 -1.318,0.198 -2.084,0.255c-0.765,0.057 -1.46,0.085 -2.084,0.085c-0.567,0 -1.233,-0.028 -1.999,-0.085c-0.765,-0.057 -1.46,-0.142 -2.084,-0.255l0,-37.001Zm-224.556,0.766c-1.531,0 -2.991,0.212 -4.38,0.638c-1.389,0.425 -2.637,1.176 -3.743,2.254c-1.106,1.077 -1.984,2.551 -2.637,4.423c-0.652,1.871 -0.978,4.281 -0.978,7.23l0,21.69c-0.624,0.113 -1.318,0.198 -2.084,0.255c-0.765,0.057 -1.46,0.085 -2.084,0.085c-0.623,0 -1.318,-0.028 -2.084,-0.085c-0.765,-0.057 -1.488,-0.142 -2.169,-0.255l0,-43.636c0.624,-0.113 1.22,-0.198 1.787,-0.255c0.567,-0.056 1.162,-0.085 1.786,-0.085c0.624,0 1.247,0.029 1.871,0.085c0.624,0.057 1.191,0.142 1.701,0.255c0.17,0.851 0.341,1.971 0.511,3.36c0.17,1.39 0.255,2.566 0.255,3.53c1.191,-1.928 2.764,-3.601 4.721,-5.018c1.956,-1.418 4.465,-2.127 7.527,-2.127c0.454,0 0.922,0.014 1.404,0.043c0.482,0.028 0.893,0.071 1.233,0.127c0.114,0.511 0.199,1.049 0.255,1.617c0.057,0.567 0.085,1.162 0.085,1.786c0,0.68 -0.042,1.389 -0.127,2.126c-0.085,0.737 -0.184,1.446 -0.298,2.127c-0.453,-0.114 -0.921,-0.17 -1.403,-0.17l-1.149,0Zm625.61,30.536c3.913,0 6.805,-1.418 8.676,-4.253c1.871,-2.835 2.807,-6.776 2.807,-11.823c0,-5.047 -0.936,-8.974 -2.807,-11.781c-1.871,-2.807 -4.763,-4.21 -8.676,-4.21c-3.913,0 -6.79,1.403 -8.633,4.21c-1.843,2.807 -2.765,6.734 -2.765,11.781c0,5.047 0.922,8.988 2.765,11.823c1.843,2.835 4.72,4.253 8.633,4.253Zm-574.914,-14.8c-0.851,-0.114 -1.928,-0.227 -3.233,-0.341c-1.304,-0.113 -2.41,-0.17 -3.317,-0.17c-3.516,0 -6.195,0.652 -8.038,1.957c-1.843,1.304 -2.764,3.289 -2.764,5.954c0,1.701 0.311,3.033 0.935,3.997c0.624,0.964 1.404,1.702 2.339,2.212c0.936,0.51 1.971,0.822 3.105,0.936c1.134,0.113 2.212,0.17 3.232,0.17c1.304,0 2.651,-0.071 4.041,-0.213c1.389,-0.142 2.622,-0.354 3.7,-0.638l0,-13.864Zm454.045,-15.736c-1.134,-0.454 -2.353,-0.794 -3.657,-1.021c-1.305,-0.227 -2.722,-0.34 -4.253,-0.34c-2.325,0 -4.338,0.425 -6.04,1.276c-1.701,0.85 -3.104,2.013 -4.21,3.487c-1.106,1.474 -1.928,3.218 -2.467,5.231c-0.538,2.013 -0.808,4.211 -0.808,6.592c0.057,5.387 1.333,9.243 3.828,11.568c2.495,2.325 5.897,3.488 10.207,3.488c1.474,0 2.835,-0.071 4.083,-0.213c1.247,-0.142 2.353,-0.354 3.317,-0.638l0,-29.43Zm-407.773,29.09c1.077,0.397 2.183,0.68 3.317,0.85c1.134,0.171 2.609,0.256 4.423,0.256c2.042,0 3.913,-0.326 5.614,-0.979c1.701,-0.652 3.161,-1.658 4.381,-3.019c1.219,-1.361 2.183,-3.076 2.892,-5.146c0.708,-2.07 1.063,-4.523 1.063,-7.358c0,-4.536 -0.837,-8.137 -2.509,-10.802c-1.673,-2.666 -4.409,-3.998 -8.209,-3.998c-1.417,0 -2.778,0.255 -4.082,0.765c-1.305,0.511 -2.467,1.276 -3.488,2.297c-1.021,1.021 -1.843,2.311 -2.467,3.87c-0.623,1.56 -0.935,3.417 -0.935,5.572l0,17.692Zm-287.245,0.085c1.021,0.34 2.112,0.581 3.275,0.723c1.162,0.142 2.367,0.213 3.615,0.213c2.098,0 4.04,-0.327 5.826,-0.979c1.787,-0.652 3.332,-1.644 4.636,-2.977c1.304,-1.332 2.339,-3.033 3.105,-5.103c0.765,-2.07 1.148,-4.523 1.148,-7.358c0,-4.706 -0.822,-8.364 -2.467,-10.972c-1.644,-2.609 -4.366,-3.913 -8.165,-3.913c-1.304,0 -2.595,0.212 -3.87,0.638c-1.276,0.425 -2.453,1.106 -3.53,2.041c-1.078,0.936 -1.943,2.183 -2.595,3.743c-0.652,1.559 -0.978,3.445 -0.978,5.656l0,18.288Zm121.89,-13.099c3.062,0 5.33,-0.851 6.805,-2.552c1.474,-1.701 2.211,-3.884 2.211,-6.55c0,-2.721 -0.737,-4.947 -2.211,-6.677c-1.475,-1.729 -3.743,-2.594 -6.805,-2.594c-3.062,0 -5.316,0.865 -6.762,2.594c-1.446,1.73 -2.169,3.956 -2.169,6.677c0,2.666 0.723,4.849 2.169,6.55c1.446,1.701 3.7,2.552 6.762,2.552Zm-166.631,-5.869c0,-1.588 -0.213,-3.105 -0.638,-4.551c-0.425,-1.446 -1.049,-2.708 -1.871,-3.785c-0.822,-1.077 -1.871,-1.942 -3.147,-2.594c-1.276,-0.652 -2.793,-0.979 -4.551,-0.979c-3.459,0 -6.11,1.05 -7.953,3.148c-1.843,2.098 -2.963,5.018 -3.36,8.761l21.52,0Zm806.531,0c0,-1.588 -0.213,-3.105 -0.638,-4.551c-0.426,-1.446 -1.049,-2.708 -1.872,-3.785c-0.822,-1.077 -1.871,-1.942 -3.147,-2.594c-1.276,-0.652 -2.793,-0.979 -4.551,-0.979c-3.459,0 -6.11,1.05 -7.953,3.148c-1.843,2.098 -2.962,5.018 -3.359,8.761l21.52,0Zm-348.828,-27.219c-0.113,-0.681 -0.184,-1.418 -0.212,-2.212c-0.029,-0.794 -0.043,-1.502 -0.043,-2.126c0,-0.624 0.014,-1.333 0.043,-2.127c0.028,-0.794 0.099,-1.502 0.212,-2.126c0.737,-0.114 1.531,-0.199 2.382,-0.255c0.85,-0.057 1.588,-0.085 2.211,-0.085c0.624,0 1.361,0.028 2.212,0.085c0.85,0.056 1.616,0.141 2.296,0.255c0.114,0.624 0.185,1.332 0.213,2.126c0.028,0.794 0.043,1.503 0.043,2.127c0,0.624 -0.015,1.332 -0.043,2.126c-0.028,0.794 -0.099,1.531 -0.213,2.212c-0.68,0.113 -1.431,0.198 -2.254,0.255c-0.822,0.057 -1.545,0.085 -2.169,0.085c-0.68,0 -1.446,-0.028 -2.296,-0.085c-0.851,-0.057 -1.645,-0.142 -2.382,-0.255Zm213.243,0c-0.113,-0.681 -0.184,-1.418 -0.212,-2.212c-0.029,-0.794 -0.043,-1.502 -0.043,-2.126c0,-0.624 0.014,-1.333 0.043,-2.127c0.028,-0.794 0.099,-1.502 0.212,-2.126c0.738,-0.114 1.531,-0.199 2.382,-0.255c0.851,-0.057 1.588,-0.085 2.212,-0.085c0.623,0 1.36,0.028 2.211,0.085c0.851,0.056 1.616,0.141 2.297,0.255c0.113,0.624 0.184,1.332 0.212,2.126c0.029,0.794 0.043,1.503 0.043,2.127c0,0.624 -0.014,1.332 -0.043,2.126c-0.028,0.794 -0.099,1.531 -0.212,2.212c-0.681,0.113 -1.432,0.198 -2.254,0.255c-0.823,0.057 -1.546,0.085 -2.169,0.085c-0.681,0 -1.446,-0.028 -2.297,-0.085c-0.851,-0.057 -1.644,-0.142 -2.382,-0.255Zm11.148,-151.405l-62.085,0l6.085,-19.606c8.925,-28.755 31.449,-39.212 84.059,-39.212c55.223,0 71.911,10.457 62.986,39.212l-30.426,98.03c-7.708,24.834 -8.069,28.102 -9.117,34.637c-0.98,0 -36.429,2.614 -36.429,2.614l-6.794,-16.011c-19.133,11.11 -41.196,17.972 -64.396,17.972c-27.122,0 -40.676,-16.338 -33.577,-39.212l8.114,-26.141c8.925,-28.756 32.103,-39.212 77.523,-39.212c14.378,0 21.026,-4.575 24.779,-16.665c2.941,-9.476 1.702,-16.012 -4.834,-16.012c-6.208,0 -11.831,6.536 -14.874,16.339l-1.014,3.267Zm128.789,58.818l-2.028,6.535c-2.029,6.536 5.092,13.071 15.549,13.071c14.378,0 20.722,-3.594 23.663,-13.071c3.549,-11.436 -17.735,-13.397 -38.536,-17.972c-20.8,-4.574 -40.563,-11.436 -33.971,-32.676l10.649,-34.311c8.925,-28.755 29.162,-39.212 84.059,-39.212c52.609,0 69.15,8.823 61.747,32.677l-7.1,22.874l-52.282,0l2.028,-6.536c2.028,-6.535 -5.453,-9.803 -14.929,-9.803c-13.071,0 -18.784,2.614 -21.015,9.803c-3.55,11.437 18.817,13.071 40.422,17.156c21.606,4.084 42.452,10.619 35.859,31.859l-12.17,39.212c-8.925,28.756 -32.43,39.212 -87.327,39.212c-49.015,0 -71.606,-11.437 -65.014,-32.677l8.114,-26.141l52.282,0Zm-662.767,-117.636c-54.897,0 -78.402,10.457 -87.327,39.212l-30.426,98.03c-8.925,28.756 8.089,39.212 62.986,39.212c54.896,0 78.401,-10.456 87.326,-39.212l30.426,-98.03c8.925,-28.755 -8.089,-39.212 -62.985,-39.212Zm-668.517,-35.944l-12.171,39.212l27.775,0l-12.17,39.212l-27.775,0l-24.341,78.424c-3.245,10.456 0.811,16.338 11.267,16.338c3.595,0 7.167,-0.98 10.615,-2.614l-12.069,38.885c-7.471,1.961 -15.291,2.941 -23.787,2.941c-44.44,0 -63.651,-16.011 -54.422,-45.747l27.384,-88.227l-11.437,0l12.17,-39.212l11.437,0l48.768,-39.212l28.756,0Zm99.944,35.944c-54.897,0 -78.402,10.457 -87.327,39.212l-30.426,98.03c-8.925,28.756 8.089,39.212 62.986,39.212c54.897,0 78.402,-10.456 87.327,-39.212l30.426,-98.03c8.925,-28.755 -8.089,-39.212 -62.986,-39.212Zm1062.17,-62.085l-64.908,209.13c-3.144,10.13 -5.432,19.606 -6.48,26.141l-35.618,0l-3.65,-16.665c-20.192,12.417 -43.438,19.933 -67.945,19.933c-27.122,0 -40.676,-16.338 -33.577,-39.212l30.426,-98.03c7.099,-22.873 30.796,-39.212 57.918,-39.212c14.051,0 25.825,5.229 34.648,14.705l23.833,-76.79l65.353,0Zm-180.913,65.353l-44.625,143.777c-3.144,10.13 -5.432,19.606 -6.48,26.141l-55.55,0c-9.476,0 -7.887,-11.436 1.748,-42.479l39.553,-127.439l65.354,0Zm-764.959,0l6.489,16.992c20.294,-12.744 43.54,-20.26 68.374,-20.26c15.358,0 26.254,4.902 31.685,13.725c16.135,-8.823 33.995,-13.725 53.274,-13.725c27.122,0 40.676,16.339 33.577,39.212l-33.469,107.833c-3.144,10.13 -5.431,19.606 -6.48,26.141l-55.55,0c-9.476,0 -7.887,-11.436 1.748,-42.479l20.284,-65.353c3.347,-10.784 1.578,-16.665 -5.284,-16.665c-2.941,0 -6.287,1.307 -10.265,3.594l-37.525,120.903l-65.354,0l33.469,-107.832c3.347,-10.784 1.578,-16.665 -5.284,-16.665c-2.941,0 -6.288,1.307 -10.265,3.594l-37.526,120.903l-65.353,0l52.739,-169.918l30.716,0Zm263.089,58.818l5.882,0c6.209,0 15.651,-6.209 18.694,-16.012l13.286,-42.806l62.086,0l-11.157,35.944c-4.665,15.032 -22.649,28.756 -42.3,36.271c16.293,7.516 27.211,22.874 22.241,38.886l-10.142,32.676c-3.144,10.13 -5.431,19.606 -6.479,26.141l-55.551,0c-9.476,0 -7.887,-11.436 1.748,-42.479l6.085,-19.606c3.043,-9.803 0.823,-16.338 -5.385,-16.338l-9.15,0l-24.34,78.423l-65.354,0l73.023,-235.271l65.353,0l-38.54,124.171Zm305.483,-58.818l6.49,16.992c20.294,-12.744 43.539,-20.26 68.374,-20.26c27.121,0 40.676,16.339 33.576,39.212l-33.468,107.833c-3.144,10.13 -5.432,19.606 -6.48,26.141l-55.55,0c-9.476,0 -7.887,-11.436 1.748,-42.479l20.284,-65.353c3.346,-10.784 1.578,-16.665 -5.285,-16.665c-2.94,0 -6.287,1.307 -10.265,3.594l-37.525,120.903l-65.353,0l52.738,-169.918l30.716,0Zm-128.465,35.944c6.209,0 7.775,6.536 4.732,16.339l-20.284,65.353c-3.043,9.803 -8.665,16.338 -14.874,16.338c-6.208,0 -7.774,-6.535 -4.732,-16.338l20.284,-65.353c3.043,-9.803 8.666,-16.339 14.874,-16.339Zm-568.573,0c6.209,0 7.775,6.536 4.732,16.339l-20.284,65.353c-3.042,9.803 -8.665,16.338 -14.874,16.338c-6.208,0 -7.774,-6.535 -4.731,-16.338l20.284,-65.353c3.042,-9.803 8.665,-16.339 14.873,-16.339Zm1111.91,91.822c-3.549,1.96 -6.467,2.94 -9.082,2.94c-11.763,0 -13.081,-5.228 -10.039,-15.031c5.376,-17.318 20.373,-14.051 28.655,-18.625l-9.534,30.716Zm-160.738,-6.863c-3.978,2.288 -7.324,3.595 -10.265,3.595c-6.209,0 -8.327,-6.862 -5.284,-16.665l14.199,-45.747c3.042,-9.803 9.42,-16.665 15.628,-16.665c2.941,0 5.477,1.307 8.034,3.594l-22.312,71.888Zm-102.821,-186.256l65.354,0l-11.664,37.578l-65.353,0l11.663,-37.578Z"/></svg>