<?xml version="1.0" standalone="no"?>
<!DOCTYPE svg PUBLIC "-//W3C//DTD SVG 20010904//EN"
 "http://www.w3.org/TR/2001/REC-SVG-20010904/DTD/svg10.dtd">
<svg version="1.0" xmlns="http://www.w3.org/2000/svg"
 width="360.000000pt" height="360.000000pt" viewBox="0 0 360.000000 360.000000"
 preserveAspectRatio="xMidYMid meet">
<metadata>
Created by potrace 1.11, written by Peter Selinger 2001-2013
</metadata>
<g transform="translate(0.000000,360.000000) scale(0.100000,-0.100000)"
fill="#000000" stroke="none">
<path d="M0 2930 l0 -670 25 12 c18 8 28 8 39 -1 10 -8 16 -9 19 -1 6 13 3 -2
-13 -51 -7 -21 -24 -43 -41 -53 l-29 -17 0 -1075 0 -1074 1800 0 1800 0 0
1105 0 1105 -22 5 c-163 37 -347 55 -378 35 -13 -8 -12 -11 5 -24 11 -9 28
-16 38 -16 9 0 18 -6 19 -12 1 -15 7 -88 10 -140 1 -20 5 -35 9 -33 3 3 5 -7
3 -20 -1 -14 2 -27 7 -31 5 -3 6 -10 3 -16 -4 -6 -7 -26 -6 -45 1 -20 -3 -31
-8 -28 -6 3 -10 2 -10 -3 0 -5 -28 -8 -62 -7 -82 2 -120 -9 -188 -53 -30 -20
-58 -35 -62 -34 -5 1 -8 -2 -8 -7 0 -12 -44 -23 -63 -16 -20 8 -53 72 -67 133
-15 66 -7 135 30 250 26 80 30 88 61 99 19 7 86 12 149 13 80 0 110 3 100 10
-39 26 -476 -21 -579 -62 -14 -6 -56 -14 -94 -18 -61 -7 -72 -12 -114 -51
-105 -99 -133 -132 -131 -160 1 -14 -6 -38 -15 -52 -16 -25 -47 -126 -47 -153
0 -7 8 -15 18 -17 9 -3 -10 -6 -43 -7 -53 -1 -57 -3 -30 -11 17 -5 46 -11 65
-13 47 -4 68 -13 116 -52 57 -46 128 -184 94 -184 -5 0 -7 7 -4 15 4 9 -1 18
-11 21 -11 5 -13 9 -5 14 8 5 7 12 -5 24 -16 16 -18 15 -32 -11 -9 -18 -11
-29 -4 -31 6 -2 11 -10 11 -18 0 -9 -4 -12 -10 -9 -5 3 -20 -1 -32 -9 -17 -12
-19 -16 -6 -16 23 0 17 -25 -13 -53 -14 -13 -29 -35 -33 -50 -3 -14 -15 -31
-26 -37 -11 -6 -18 -15 -14 -21 3 -5 -2 -22 -12 -37 -10 -15 -19 -39 -19 -54
0 -19 -16 -42 -53 -77 -29 -27 -52 -57 -52 -66 0 -10 -11 -26 -25 -36 -13 -11
-27 -35 -31 -55 -4 -25 -11 -34 -21 -30 -8 4 -17 -4 -23 -19 -5 -14 -16 -28
-25 -31 -8 -3 -13 -10 -10 -14 3 -4 2 -22 -2 -40 l-6 -33 -19 24 c-32 40 -77
136 -94 196 -10 38 -15 104 -16 191 0 72 -3 132 -6 132 -3 0 -37 -15 -76 -34
-56 -27 -77 -44 -98 -78 -15 -24 -41 -56 -58 -71 -16 -16 -30 -34 -30 -40 0
-7 -7 -25 -15 -40 -8 -16 -17 -59 -21 -95 -8 -91 -12 -103 -27 -75 -7 12 -12
59 -11 110 2 159 -1 150 47 179 68 43 106 85 143 159 47 94 56 102 86 83 13
-9 37 -18 55 -22 31 -7 31 -7 58 64 35 91 85 154 171 215 38 27 71 50 73 51 2
2 3 16 3 31 0 15 18 65 41 111 l40 83 -22 20 c-11 11 -21 25 -21 32 1 40 17
59 79 93 36 20 88 52 114 71 55 39 190 77 416 117 79 14 150 31 157 37 11 9
38 75 37 89 -1 3 4 14 10 25 6 11 10 23 9 27 -1 4 7 10 18 13 11 4 18 11 14
16 -9 15 48 -1 70 -20 10 -9 27 -32 37 -51 10 -19 29 -48 43 -64 21 -25 28
-28 57 -22 53 11 77 9 112 -7 35 -17 236 -67 268 -67 19 0 19 17 19 650 l0
650 -916 0 -916 0 7 -22 c3 -13 16 -79 27 -148 30 -184 67 -248 142 -251 21
-1 25 -3 11 -6 -19 -5 -44 -30 -45 -45 0 -5 8 -8 18 -8 10 0 22 3 26 8 4 4 11
7 14 8 4 0 19 4 33 8 36 10 102 -25 204 -107 137 -111 176 -150 221 -219 54
-83 69 -117 54 -132 -7 -7 -10 0 -10 22 0 24 -4 30 -15 26 -9 -4 -15 -1 -15 7
0 7 -21 34 -47 60 -27 26 -53 53 -59 60 -26 32 -77 69 -86 63 -6 -4 -6 -10 1
-17 6 -6 11 -18 11 -27 -1 -13 -3 -12 -14 3 -7 9 -17 17 -21 17 -4 0 -13 7
-19 15 -9 12 -18 13 -43 6 -21 -6 -35 -6 -39 0 -3 5 -10 7 -15 4 -5 -4 -9 -2
-9 3 0 6 -9 8 -19 5 -20 -5 -47 29 -37 46 3 5 -5 11 -19 13 -27 6 -32 -1 -14
-19 15 -15 2 -34 -19 -31 -13 2 -17 -5 -17 -30 -1 -19 -9 -41 -22 -53 -22 -22
-25 -21 -104 17 -3 2 -17 -3 -31 -10 -24 -13 -27 -12 -31 5 -3 10 -2 21 2 23
3 2 6 43 5 90 -1 71 -4 89 -19 100 -17 12 -17 14 5 44 13 17 26 29 30 27 4 -3
0 20 -9 50 -11 37 -24 58 -42 69 -24 14 -26 21 -27 83 -1 75 -6 102 -29 186
l-17 57 -843 0 -843 0 0 -670z m1532 -15 c-7 -42 -57 -128 -89 -153 -18 -15
-45 -27 -60 -27 -20 0 -28 -6 -34 -27 -4 -15 -23 -41 -43 -59 -42 -37 -211
-228 -246 -279 -14 -19 -33 -45 -43 -56 -24 -28 -107 -88 -107 -77 0 4 -4 1
-10 -7 -8 -12 -10 -12 -16 4 -11 29 36 113 148 264 122 165 341 391 408 421
57 26 96 24 92 -4z m574 -4 c8 7 14 7 14 1 0 -5 -7 -15 -15 -22 -8 -7 -15 -10
-15 -7 0 3 -2 11 -3 19 -2 7 -2 9 1 5 2 -4 10 -3 18 4z m-112 -72 c-8 -13 -24
-1 -24 18 0 13 3 13 15 3 8 -7 12 -16 9 -21z m-185 -31 c0 -27 -2 -29 -8 -13
-5 11 -6 26 -4 33 8 21 13 13 12 -20z m-168 -93 c114 -24 222 -81 309 -162 42
-39 82 -84 90 -99 8 -16 25 -41 39 -56 14 -16 20 -28 14 -28 -6 0 -13 4 -15
10 -1 5 -14 11 -27 13 -13 2 -32 14 -42 26 -10 12 -30 24 -44 27 -15 3 -36 13
-47 24 -27 25 -96 48 -136 45 -18 -2 -32 0 -32 4 0 6 -29 10 -100 14 -14 1
-37 -2 -52 -6 -17 -5 -28 -3 -28 3 0 5 7 10 16 10 8 0 13 4 9 10 -3 5 -12 7
-20 3 -9 -3 -15 1 -15 10 0 8 -7 18 -16 21 -12 5 -15 -1 -12 -27 2 -26 0 -31
-14 -29 -27 4 -28 -66 -2 -81 8 -5 12 -12 9 -18 -4 -5 -7 -27 -7 -49 0 -29 -6
-43 -22 -53 -11 -8 -27 -32 -35 -53 -30 -84 -35 -84 -77 1 -33 67 -38 88 -42
166 -3 64 0 102 12 138 9 27 16 60 16 73 0 30 32 58 68 58 15 0 34 5 42 10 22
14 78 12 161 -5z m-21 -717 c0 -5 -4 -6 -10 -3 -5 3 -10 1 -10 -4 0 -6 -5 -11
-12 -11 -6 0 -8 3 -5 6 3 4 2 15 -4 25 -9 17 -7 18 16 7 14 -6 25 -15 25 -20z
m470 -46 c-13 -17 -34 -33 -48 -37 -26 -6 -89 -68 -174 -170 -87 -104 -160
-178 -167 -168 -3 6 -16 15 -28 22 -36 19 -28 48 20 77 23 15 86 77 140 140
83 95 106 115 145 129 26 9 63 24 82 35 45 24 58 11 30 -28z m-659 -202 c73
-14 107 -29 111 -48 3 -17 -25 -52 -42 -52 -5 0 -19 -8 -29 -17 -11 -9 -26
-18 -33 -19 -19 -4 -78 -24 -118 -42 -19 -8 -58 -20 -87 -27 -28 -6 -64 -22
-80 -34 -53 -42 -163 -111 -177 -111 -7 0 -31 -13 -52 -28 -21 -16 -54 -34
-73 -40 -36 -13 -133 -16 -144 -6 -4 4 5 20 19 37 14 17 40 60 59 96 74 147
244 253 445 280 98 13 133 18 141 20 4 0 31 -4 60 -9z m-996 -660 c-3 -10 -6
-35 -6 -56 -1 -51 -17 -114 -29 -114 -6 0 -10 -8 -10 -19 0 -21 -31 -44 -72
-54 -23 -6 -31 -2 -52 26 -15 19 -26 44 -26 57 0 42 41 110 81 137 22 14 39
29 39 33 0 5 12 13 28 18 32 11 55 -2 47 -28z"/>
<path d="M1440 2632 c0 -10 7 -27 15 -38 8 -10 15 -27 15 -36 0 -22 12 -29 30
-18 11 7 11 11 1 24 -10 12 -10 16 -2 16 7 0 0 16 -15 35 -29 39 -44 44 -44
17z"/>
<path d="M2181 2951 c-9 -16 -8 -18 9 -14 21 6 26 18 11 28 -6 3 -15 -3 -20
-14z"/>
<path d="M2141 1831 c-8 -14 -7 -22 2 -30 16 -13 37 4 37 31 0 24 -27 23 -39
-1z"/>
</g>
</svg>
